<svg xmlns="http://www.w3.org/2000/svg" viewBox="0 0 400 120" width="400" height="120">
  <defs>
    <linearGradient id="goldGradW" x1="0%" y1="0%" x2="100%" y2="100%">
      <stop offset="0%" stop-color="#D4A843"/>
      <stop offset="100%" stop-color="#C68B2C"/>
    </linearGradient>
  </defs>

  <!-- Icon Mark: White/cream version for dark backgrounds -->
  <g transform="translate(10, 10)">
    <path d="M45,0 C55,0 65,2 75,8 C85,14 90,22 90,32 C90,52 75,72 45,92 C15,72 0,52 0,32 C0,22 5,14 15,8 C25,2 35,0 45,0Z"
          fill="#F5F0E8" opacity="0.95"/>
    <path d="M45,15 C45,15 30,35 30,50 C30,60 37,68 45,72 C53,68 60,60 60,50 C60,35 45,15 45,15Z"
          fill="none" stroke="url(#goldGradW)" stroke-width="1.8" opacity="0.9"/>
    <line x1="45" y1="18" x2="45" y2="70" stroke="url(#goldGradW)" stroke-width="1.2" opacity="0.7"/>
    <path d="M45,30 L35,38" stroke="url(#goldGradW)" stroke-width="1" opacity="0.6"/>
    <path d="M45,30 L55,38" stroke="url(#goldGradW)" stroke-width="1" opacity="0.6"/>
    <path d="M45,40 L33,47" stroke="url(#goldGradW)" stroke-width="1" opacity="0.6"/>
    <path d="M45,40 L57,47" stroke="url(#goldGradW)" stroke-width="1" opacity="0.6"/>
    <path d="M45,50 L35,56" stroke="url(#goldGradW)" stroke-width="1" opacity="0.6"/>
    <path d="M45,50 L55,56" stroke="url(#goldGradW)" stroke-width="1" opacity="0.6"/>
    <circle cx="45" cy="62" r="3.5" fill="url(#goldGradW)"/>
    <path d="M32,75 Q45,82 58,75" fill="none" stroke="url(#goldGradW)" stroke-width="1.5" opacity="0.5"/>
    <path d="M35,79 Q45,85 55,79" fill="none" stroke="url(#goldGradW)" stroke-width="1.2" opacity="0.4"/>
  </g>

  <!-- Wordmark - White/Cream for dark backgrounds -->
  <g transform="translate(115, 35)">
    <text font-family="Georgia, 'Times New Roman', serif" font-size="42" font-weight="400" fill="#F5F0E8" letter-spacing="1">
      Shell
    </text>
    <text x="108" font-family="Georgia, 'Times New Roman', serif" font-size="42" font-weight="400" fill="#C68B2C" letter-spacing="1">
      Nest
    </text>
  </g>

  <!-- Tagline -->
  <text x="118" y="78" font-family="'Helvetica Neue', Arial, sans-serif" font-size="11" fill="#D4A843" letter-spacing="3.5" opacity="0.8">
    PREMIUM SOUTH AFRICAN EXPORTS
  </text>

  <line x1="118" y1="86" x2="370" y2="86" stroke="#C68B2C" stroke-width="0.8" opacity="0.3"/>
</svg>
