<?xml version="1.0" encoding="UTF-8"?><svg id="Layer_1" xmlns="http://www.w3.org/2000/svg" viewBox="0 0 342.73 397.72"><defs><style>.cls-1{fill:#FFFFFF;}.cls-2{fill:#c88d2a;}</style></defs><path class="cls-2" d="M171.88.09c15.86,22.7,29.11,47.43,34.79,74.83.71.54,2.52-4.74,2.73-5.19,9.21-19.33,22.19-36.68,37.57-51.47,7.13,18.45,13.54,37.45,15.97,57.21.64,5.2.79,10.44,1.4,15.64,2.01-2.37,3.75-5.12,5.74-7.58,4.89-6.03,10.99-12.44,16.68-17.73,6.25-5.81,13.31-11.45,20.41-16.17.74,5.56,1.76,11.12,2.36,16.7,1.93,17.86,2.11,36.45,0,54.29-.54,4.56-1.61,9.08-2.02,13.66.58.15.67-.24,1.01-.5,8.81-6.75,20.24-19.26,26.58-28.4,2.01-2.89,3.84-6.66,5.85-9.33.29-.38.36-.69.96-.56.09,12.67.24,25.32-1.39,37.9-2.04,15.8-6.2,31.66-12.38,46.31-1.08,2.56-3,7.53-4.45,9.64-.78,1.13-5.23,4.26-6.63,5.25-10.82,7.67-23.48,13.6-35.86,18.27,1.99-10.88,2.96-21.89,2.77-32.98l6.65-4.64c13.32-10.74,26.75-23.23,35.15-38.38.52-.93,2.19-3.96,2.3-4.79.08-.62-.39-.74-.67-.5-.19.17-1.34,2.08-1.81,2.58-10.75,11.32-26.89,24.01-39.91,32.77-.56.38-2.19,1.85-2.65,1.08-.19-.32-.72-4.71-.63-5.34.36-2.39,3.87-8.46,5.01-11.21,9.62-23.21,11.14-50.39,8.95-75.2-.58-.15-.67.24-1.01.5-2.19,1.7-5.6,5.44-7.59,7.59-11.18,12.04-20.43,26.11-26.79,41.28l-.69.2c-3.05-4.44-7.52-7.81-10.8-11.97l1.02-11.78c.14-12.64-.93-25.32-3.48-37.69-1.36-6.57-3.39-12.98-4.96-19.49-.79-.22-.57.21-.77.43-1.8,2.01-3.84,4.8-5.44,7.02-8.01,11.06-14.57,23.88-19.09,36.74-.52.45-5.46-2.73-6.4-3.21-3.64-1.88-7.34-3.7-11.02-5.51-1.34-.66-5.69-2.17-6.36-3.09-3.63-14.84-8.7-28.98-15.91-42.44-1.25-2.33-3.54-6.91-5.03-8.8-.22-.29-.54-.8-.98-.7-.59.14-5.4,9.14-6.09,10.45-7.02,13.31-11.95,27.09-15.42,41.75-8.05,3.43-15.86,7.4-23.37,11.88-6.33-15.93-14.09-31.56-25.46-44.52-3.6,11.82-6.48,23.92-7.76,36.26-1.16,11.13-1.07,21.85-.07,32.98l-10.9,11.7c-.66.12-.41-.1-.57-.42-1.32-2.63-2.34-5.51-3.68-8.13-5.8-11.4-13.4-22.49-22.05-31.92-.64-.7-9.22-9.64-9.61-9.1-.38,3.08-.22,6.18-.34,9.27-.93,22.93.84,44.11,9.28,65.6,1.13,2.87,4.7,9.42,5.09,11.8.12.71-.56,5.49-.89,5.74-15.65-11.4-31.55-22.81-44.69-37.1,0,1.82,1.6,4.13,2.6,5.83,6.51,11.15,15.16,21.02,24.82,29.56,5.26,4.65,10.94,8.79,16.42,13.18.32,5.44.08,10.91.51,16.35s1.7,10.89,2.36,16.36c-10.58-3.91-20.99-8.83-30.53-14.83-3.19-2-8.48-5.3-11.12-7.77-2.03-1.89-7.06-15.03-8.27-18.37C2.51,147.47-.35,121.44.59,95.49c.78-.2.56.15.77.43,2.25,2.87,4.17,6.71,6.37,9.8,7.65,10.74,17.23,20.05,27.26,28.56-.3-4.57-1.47-9.09-2.02-13.66-.45-3.75-.77-7.7-1.01-11.47-1.25-19.9.41-39.88,3.37-59.53,16.42,10.98,30.89,25.31,42.66,41.14.83.04.46-5.36.51-6.23,1.35-22.37,8.74-44.59,16.59-65.36.19-.55.49-.69,1.05-.53.38.1,4.47,4.32,5.12,5.01,13.81,14.6,25.55,31.62,33.48,50.16.13.39.7,1.06,1.08.77.5-.38,2.69-10.42,3.21-12.14,5.96-19.97,16.23-40.99,28.56-57.78.52-.71,2.95-4.22,3.3-4.45.28-.19.68-.28.97-.11Z"/><path class="cls-1" d="M315.94,208.81c-11.86,31.73-35.64,58.14-64.11,76.03-25.51,16.03-46.04,18.75-62.09,47.86-11.16,20.25-12.18,41.91-11.41,64.65-1.98-.31-4.02.33-5.89.35C78.26,398.88,1.86,319.77.6,226.84c-.23-17.2-.99-36.46-.35-53.62.02-.41-.25-1.25.33-1.17,3.62,10.29,8.45,20.06,13.82,29.52-.3,18.35-.64,35.95,2.87,54.13,12.02,62.08,62.64,113.51,124.97,125.12-5.38-41.54-50.81-52.4-76.39-78.24-.47.33.04,1.09.23,1.46,1.12,2.2,4.04,5.82,5.69,7.8,17.64,21.25,46.19,31.2,58.68,56.84-20.41-6.12-40.12-16.98-55.99-31.19-21.69-19.42-34.64-48.03-33.05-77.58.02-.38-.22-.93.33-.84.65,1.93,1.94,3.82,3.1,5.5,19.57,28.28,54.66,38.42,80.37,59.6,17.97,14.8,30.03,34.83,30.55,58.66l8.42.69c.46-20.64-4.04-41.1-15.92-58.12-16.25-23.29-34.61-26.28-56.91-40.23-28.34-17.72-52.04-43.57-64.11-75.02,7.53,14.34,21.69,30.42,34.83,39.87,6.38,4.59,12.9,7.75,19.47,11.73,8.31,5.03,15.39,10.91,24.28,15.85,16.98,9.43,34.12,15.67,53.63,17.54,3.83.37,7.62.65,11.47.67.34,0,.67,0,1.01,0,3.74-.02,7.41-.32,11.13-.67,18.99-1.82,36.02-7.75,52.62-16.86,4.08-2.24,8.09-4.52,11.98-7.08,2.9-1.91,11.78-7.59,13.65-9.79.64.05,1.15-.21,1.7-.49,2.65-1.37,5.97-3.37,8.54-4.95,18.37-11.32,34.07-27.78,44.4-47.17ZM189.8,308.65c-7.26.34-14.49,1.23-21.77,1.02l-15.33-1.02c6.09,7.36,11.6,15.31,15.57,24.05.51,1.13,2.43,7.2,2.81,7.31.65.19.49-.3.66-.67,1.24-2.8,2.14-5.82,3.49-8.66,3.79-7.98,8.95-15.25,14.56-22.03Z"/><path class="cls-1" d="M294.21,344.26c-24.48,25.85-58,44.35-93.22,50.63-1.74.31-13.39,2.3-13.89,1.79-.76-17.68.84-34.14,9.98-49.55,23.9-40.34,77.48-46.04,103.07-86.48.43-.68.53-2.12,1.29-1.41-.74,2.8-.17,5.89-.33,8.78-1.57,28.17-12.91,52.07-34.07,70.48-15.66,13.63-34.77,24.14-54.64,30.18,9.38-21.65,32.04-31.61,48.57-46.71,5.06-4.62,12.39-12.17,15.53-18.2.16-.32.62-.96.15-1.2-19.93,20.69-50.6,29.68-67.03,54.06-4.72,7-8.3,15.26-9.35,23.71-.1.77.55.53,1.15.48,9.02-.85,25.56-7.27,34.02-11.17,57.53-26.55,92.53-83.28,93-146.5.04-5.86-1.4-16.09-.29-21.51.72-3.5,6.23-9.7,7.3-13.61l6.45-15.63c-.15,1.32.29,2.56.36,3.86.86,17.74.42,38.56-.37,56.33-1.88,42.65-18.48,80.85-47.68,111.68Z"/><path class="cls-1" d="M239.24,137.45c-9.29-10.36-23.28-20.9-35.3-27.94-.9-.53-6.57-3.72-3.99-1.07,15.81,16.22,27.44,29.36,36.79,50.57.55,1.26,2.85,6.44,2.59,7.4-.41,1.51-9.09,8.58-10.58,10.36-1.41-3.02-2.21-6.24-3.48-9.33-8.21-19.9-22.04-37.34-37.49-52.05,1.57,4.63,4.34,8.9,6.36,13.37,7.51,16.63,13.15,36.24,15.85,54.3.14.92,1.42,10.57.89,10.58-2.27-4.59-4.78-9.09-7.45-13.47-3.57-5.86-8.64-12.05-11.79-17.89-2.15-4-3.57-10.8-5.21-15.36-4.01-11.17-9.2-21.79-14.85-32.2-.8-.19-.54.14-.75.44-5.11,7.38-10.93,21.48-14.09,30.08-1.8,4.89-3.21,11.88-5.33,16.26s-7.44,11-10.32,15.65c-3.31,5.35-6.66,10.8-9.31,16.5-.58.09-.36-.8-.33-1.17,2.21-26.75,11.13-52.88,23.26-76.57l-3.89,3.35c-16.01,16.26-30.09,35.37-36.58,57.53l-11.08-10.17c5.91-18.32,17.27-34.46,29.8-48.85l10.96-10.79c-5.03,2.3-10.17,5.51-14.81,8.63-16.41,11.03-25.53,21.03-37.08,36.79-.26.36-.34,1.09-.39,1.12-.5.38-2.59-2.36-3.02-2.88-.99-1.18-6.02-7.53-6.08-8.45s.73-1.71,1.22-2.47c16.18-25.04,51.46-46.66,78.97-56.95,1.83-.69,6.39-2.69,8.01-2.81,1.8-.13,8.2,2.44,10.28,3.23,27.53,10.52,60.6,31.22,77.38,55.84.83,1.21,1.93,2.48,1.37,4-.37,1.01-6.4,8.83-7.4,9.8-.26.25-.58.77-1.01.67s-3.99-6.01-4.76-7.05c-2.25-3-4.86-6.21-7.36-9Z"/><path class="cls-2" d="M194.04,214.4c-5.64,6.2-11.52,12.37-15.72,19.7-1.31-.54-6.38-5.84-7.2-5.7l-6.8,5.68c-7.44-11.53-17.26-21.12-26.4-31.22,6.84-14.69,15.75-28.6,25.43-41.58,2.27-3.05,4.62-6.2,7.23-8.97.59-.63.14-1.57,1.51-.17,1.91,1.95,4.3,5.5,6.03,7.8,10.1,13.39,19.48,27.77,26.52,42.95-.08.81-6.78,7.02-7.94,8.27-.89.96-1.76,2.24-2.67,3.24Z"/><path class="cls-2" d="M228.6,236.12c-1.88-6.88-4.22-13.63-6.94-20.21-1.26-3.04-3.76-7.01-4.56-9.95-.65-2.42.95-3.59,2.38-5.4,12.11-15.25,28.48-27.34,40.78-42.6,2.4-2.98,4.93-7.61,7.3-10.16,1.51-1.63,1.57.53,2,1.99,6.29,21.71,5.82,45.67.78,67.56l-.49.52c-10.44,3.79-20.87,8.09-30.82,13.03-1.35.67-9.84,5.65-10.43,5.22Z"/><path class="cls-2" d="M90.78,167.52c10.25,10.96,25.7,23.05,33.92,35.05.32.47.87,1.24.95,1.77.22,1.36-3.96,9.57-4.79,11.6-2.68,6.58-5.15,13.29-6.99,20.16-.56.15-1.06-.02-1.56-.24-3.24-1.37-7.09-4.11-10.43-5.76-9.3-4.59-19.05-8.33-28.7-12.12-1.28-.77-2.04-5.43-2.36-7.08-2.77-14.04-3.45-30.18-1.35-44.34.99-6.68,2.72-13.27,4.3-19.82,3.07,3.69,5.68,7.88,8.77,11.63,2.54,3.08,5.5,6.22,8.23,9.14Z"/><path class="cls-2" d="M183.05,295.16c5.55-11.38,14.43-21.84,23.6-30.53,16.82-15.95,37.44-26.4,58.86-34.9.4.36.13,1.23,0,1.69-2.81,10.14-11.24,24.21-17.57,32.68-3.76,5.03-8.26,9.42-12.28,14.19-16.59,9.12-33.63,15.04-52.62,16.86Z"/><path class="cls-2" d="M105.82,277.62c.67-.14-.35-.86-.51-1.01-12.75-12.72-23.1-29.88-28.83-46.88,33.48,12.23,66.06,33.03,82.97,65.43-19.5-1.87-36.64-8.1-53.63-17.54Z"/><path class="cls-2" d="M171.92,295.83c-.34,0-.67,0-1.01,0-3.02-5.77-6.3-11.44-10.04-16.77-1.25-1.78-9.45-11.64-9.53-12.42-.17-1.68,6.56-11.08,7.97-12.94,2.46-3.21,6.03-7.54,8.9-10.32.85-.82,2.19-1.81,3.21-2.44,1.28.11,10.61,11.13,11.96,12.91s7.94,11.22,7.78,12.79c-.08.77-5.91,7.33-6.9,8.64-4.72,6.24-9.24,13.36-12.34,20.55Z"/><path class="cls-2" d="M209.69,212.18c4.02,9.73,8.49,19.35,10.48,29.79-5.7,3.9-11.37,7.95-16.55,12.54-.97.86-4.2,4.74-5.2,4.58-2.11-3.17-4.05-6.51-6.33-9.57-.99-1.34-7.02-8.06-6.95-8.78,4.07-6.22,8.69-12.18,13.59-17.76,1.74-1.98,8.11-9.28,9.74-10.31.39-.25.71-.56,1.22-.48Z"/><path class="cls-2" d="M139.01,218.11c6.65,7.03,13.51,14.46,18.29,22.91-4.59,5.92-9.41,11.6-13.23,18.07l-21.66-17.43c2.16-10.27,6.5-19.81,10.39-29.47.51-.14.56.14.84.33,1.62,1.12,3.91,4.06,5.36,5.6Z"/><path class="cls-2" d="M27.23,210.16c-.54-1.02-1.19-2.04-1.35-3.21-.07-.53-.03-.57.5-.49,11.99,7.5,25.11,13.01,38.2,18.29,2.33,6.9,4.67,13.79,7.78,20.38,2.72,5.75,6.14,11.05,9.17,16.64-6.56-3.98-13.09-7.14-19.47-11.73-13.14-9.45-27.3-25.53-34.83-39.87Z"/><path class="cls-2" d="M315.94,208.81c-10.32,19.4-26.03,35.85-44.4,47.17-2.57,1.59-5.89,3.58-8.54,4.95-.55.28-1.06.54-1.7.49,2.07-2.42,5.71-9.67,7.26-12.8,3.8-7.65,6.75-15.75,9.35-23.87,13.35-5.29,26.69-10.99,38.87-18.64.42.83-.46,1.98-.85,2.7Z"/></svg>